# xmcd
#
# Track frame offsets: 
#        150
#        12852
#        30692
#        47057
#        66595
#        83185
#        105277
#        124385
#        159760
#        170300
#        184227
#        198817
#
# Disc length: 2937 seconds
#
# Revision: 0
# Processed by: cddbd v1.5.1PL0 Copyright (c) Steve Scherf et al.
# Submitted via: ExactAudioCopy v0.95a5
#
DISCID=940b770c
DTITLE=Gina Fabiani Daniele Bazzani - Kozmic blues
DYEAR=2004
DGENRE=Fingerpicking
TTITLE0=Merceds Benz
TTITLE1=Things behind the sun
TTITLE2=Just another night
TTITLE3=My old man
TTITLE4=City of refuge
TTITLE5=Jockey full of bourbon
TTITLE6=Every breath you take
TTITLE7=Jokerman
TTITLE8=Oh! darling
TTITLE9=Jambalaya
TTITLE10=Summertime
TTITLE11=A change is gonna come
EXTD=
EXTT0=
EXTT1=
EXTT2=
EXTT3=
EXTT4=
EXTT5=
EXTT6=
EXTT7=
EXTT8=
EXTT9=
EXTT10=
EXTT11=
PLAYORDER=
